<svg xmlns="http://www.w3.org/2000/svg" width="1200" height="675" viewBox="0 0 1200 675" role="img">
<defs>
  <linearGradient id="bg" x1="0" y1="0" x2="1" y2="1"><stop offset="0" stop-color="#e8f3ff"/><stop offset="1" stop-color="#f5f9ff"/></linearGradient>
  <filter id="blur" x="-30%" y="-30%" width="160%" height="160%"><feGaussianBlur stdDeviation="14"/></filter>
</defs>
<rect width="1200" height="675" fill="url(#bg)"/>
<circle cx="217" cy="190" r="211" fill="#cfe5ff" opacity="0.7"/>
<circle cx="1110" cy="558" r="194" fill="#cfe5ff" opacity="0.6"/>
<circle cx="450" cy="350" r="290" fill="none" stroke="#b6a5f5" stroke-width="2" stroke-dasharray="4 12" opacity="0.6"/>
<ellipse cx="450" cy="360" rx="330" ry="250" fill="#ffffff" opacity="0.45"/>
<circle cx="930" cy="50" r="4" fill="#6c4ee0" opacity="0.16"/><circle cx="958" cy="50" r="4" fill="#6c4ee0" opacity="0.16"/><circle cx="986" cy="50" r="4" fill="#6c4ee0" opacity="0.16"/><circle cx="1014" cy="50" r="4" fill="#6c4ee0" opacity="0.16"/><circle cx="1042" cy="50" r="4" fill="#6c4ee0" opacity="0.16"/><circle cx="1070" cy="50" r="4" fill="#6c4ee0" opacity="0.16"/><circle cx="1098" cy="50" r="4" fill="#6c4ee0" opacity="0.16"/><circle cx="930" cy="78" r="4" fill="#6c4ee0" opacity="0.16"/><circle cx="958" cy="78" r="4" fill="#6c4ee0" opacity="0.16"/><circle cx="986" cy="78" r="4" fill="#6c4ee0" opacity="0.16"/><circle cx="1014" cy="78" r="4" fill="#6c4ee0" opacity="0.16"/><circle cx="1042" cy="78" r="4" fill="#6c4ee0" opacity="0.16"/><circle cx="1070" cy="78" r="4" fill="#6c4ee0" opacity="0.16"/><circle cx="1098" cy="78" r="4" fill="#6c4ee0" opacity="0.16"/><circle cx="930" cy="106" r="4" fill="#6c4ee0" opacity="0.16"/><circle cx="958" cy="106" r="4" fill="#6c4ee0" opacity="0.16"/><circle cx="986" cy="106" r="4" fill="#6c4ee0" opacity="0.16"/><circle cx="1014" cy="106" r="4" fill="#6c4ee0" opacity="0.16"/><circle cx="1042" cy="106" r="4" fill="#6c4ee0" opacity="0.16"/><circle cx="1070" cy="106" r="4" fill="#6c4ee0" opacity="0.16"/><circle cx="1098" cy="106" r="4" fill="#6c4ee0" opacity="0.16"/><circle cx="930" cy="134" r="4" fill="#6c4ee0" opacity="0.16"/><circle cx="958" cy="134" r="4" fill="#6c4ee0" opacity="0.16"/><circle cx="986" cy="134" r="4" fill="#6c4ee0" opacity="0.16"/><circle cx="1014" cy="134" r="4" fill="#6c4ee0" opacity="0.16"/><circle cx="1042" cy="134" r="4" fill="#6c4ee0" opacity="0.16"/><circle cx="1070" cy="134" r="4" fill="#6c4ee0" opacity="0.16"/><circle cx="1098" cy="134" r="4" fill="#6c4ee0" opacity="0.16"/><circle cx="930" cy="162" r="4" fill="#6c4ee0" opacity="0.16"/><circle cx="958" cy="162" r="4" fill="#6c4ee0" opacity="0.16"/><circle cx="986" cy="162" r="4" fill="#6c4ee0" opacity="0.16"/><circle cx="1014" cy="162" r="4" fill="#6c4ee0" opacity="0.16"/><circle cx="1042" cy="162" r="4" fill="#6c4ee0" opacity="0.16"/><circle cx="1070" cy="162" r="4" fill="#6c4ee0" opacity="0.16"/><circle cx="1098" cy="162" r="4" fill="#6c4ee0" opacity="0.16"/>
<g transform="translate(106.0,100.2) scale(1.72)">
  <ellipse cx="205" cy="262" rx="130" ry="9" fill="#1f2a44" opacity="0.10"/>
  <path d="M188 142 L236 142 L300 92 L276 92Z" fill="#4f34b8"/>
  <path d="M74 168 Q72 146 104 141 L302 135 Q328 133 346 116 L364 116 L360 154 Q332 172 290 174 L108 180 Q76 184 74 168Z" fill="#ffffff"/>
  <path d="M80 176 Q90 182 108 180 L290 174 Q330 172 356 160 L358 152 Q326 164 288 165 L104 170Z" fill="#e2e8f0"/>
  <path d="M322 132 L346 74 L372 74 L362 134Z" fill="#6c4ee0"/>
  <ellipse cx="350" cy="140" rx="34" ry="6" fill="#4f34b8"/>
  <path d="M96 156 L340 148" stroke="#6c4ee0" stroke-width="7" stroke-linecap="round"/>
  <path d="M100 145 Q112 133 136 133 L150 133 L150 145Z" fill="#b9dcfb"/>
  <rect x="170" y="137" width="14" height="10" rx="4" fill="#d6ecff"/><rect x="196" y="137" width="14" height="10" rx="4" fill="#d6ecff"/><rect x="222" y="137" width="14" height="10" rx="4" fill="#d6ecff"/><rect x="248" y="137" width="14" height="10" rx="4" fill="#d6ecff"/><rect x="274" y="137" width="14" height="10" rx="4" fill="#d6ecff"/>
  <path d="M172 158 L232 158 L296 222 L262 222Z" fill="#6c4ee0"/>
  <path d="M232 158 L296 222 L262 222 L214 170Z" fill="#4f34b8" opacity="0.35"/>
  <circle cx="72" cy="166" r="9" fill="#ff8a3d"/>
  <ellipse cx="66" cy="166" rx="4" ry="34" fill="#1f2a44" opacity="0.55"/>
  
  <path d="M128 180 L122 236 M240 176 L246 236" stroke="#94a3b8" stroke-width="5"/>
  <circle cx="122" cy="240" r="14" fill="#273248"/><circle cx="122" cy="240" r="7.700000000000001" fill="#cbd5e1"/><circle cx="122" cy="240" r="2.8000000000000003" fill="#94a3b8"/><circle cx="246" cy="240" r="14" fill="#273248"/><circle cx="246" cy="240" r="7.700000000000001" fill="#cbd5e1"/><circle cx="246" cy="240" r="2.8000000000000003" fill="#94a3b8"/></g>

  <rect x="761" y="134" width="290" height="236" rx="30" fill="#1f2a44" opacity="0.10" filter="url(#blur)"/>
  <rect x="757" y="120" width="290" height="236" rx="30" fill="#ffffff"/><g transform="translate(782,136) scale(0.6)">
  <ellipse cx="200" cy="268" rx="120" ry="9" fill="#1f2a44" opacity="0.10"/>
  <g transform="rotate(-6 200 150)">
    <rect x="110" y="40" width="190" height="230" rx="12" fill="#b6a5f5"/>
  </g>
  <path d="M104 34 L262 34 L300 72 L300 262 Q300 270 292 270 L112 270 Q104 270 104 262Z" fill="#ffffff"/>
  <path d="M262 34 L262 64 Q262 72 270 72 L300 72Z" fill="#e2e8f0"/>
  <rect x="128" y="62" width="100" height="12" rx="6" fill="#6c4ee0"/>
  <rect x="128" y="96" width="150" height="8" rx="4" fill="#e2e8f0"/><rect x="128" y="118" width="130" height="8" rx="4" fill="#e2e8f0"/><rect x="128" y="140" width="150" height="8" rx="4" fill="#e2e8f0"/><rect x="128" y="162" width="110" height="8" rx="4" fill="#e2e8f0"/><rect x="128" y="184" width="140" height="8" rx="4" fill="#e2e8f0"/>
  <circle cx="246" cy="230" r="26" fill="#ff8a3d"/>
  <path d="M234 230 L244 240 L260 222" fill="none" stroke="#ffffff" stroke-width="6" stroke-linecap="round" stroke-linejoin="round"/>
  <path d="M130 238 Q144 222 156 238 T184 236" fill="none" stroke="#1f2a44" stroke-width="3" stroke-linecap="round"/></g>

  <rect x="57" y="285" width="118" height="118" rx="30" fill="#1f2a44" opacity="0.10" filter="url(#blur)"/>
  <rect x="53" y="271" width="118" height="118" rx="30" fill="#ffffff"/><g transform="translate(76,294) scale(1.5)"><path d="M24 4 L41 10 L41 23 Q41 36 24 44 Q7 36 7 23 L7 10Z" fill="#6c4ee0"/><path d="M16 24 L22 30 L33 18" fill="none" stroke="#ffffff" stroke-width="4.5" stroke-linecap="round" stroke-linejoin="round"/></g>
  <rect x="849" y="425" width="118" height="118" rx="30" fill="#1f2a44" opacity="0.10" filter="url(#blur)"/>
  <rect x="845" y="411" width="118" height="118" rx="30" fill="#ffffff"/><g transform="translate(868,434) scale(1.5)"><circle cx="21" cy="21" r="13" fill="none" stroke="#ff8a3d" stroke-width="5"/><path d="M31 31 L41 41" stroke="#1f2a44" stroke-width="6" stroke-linecap="round"/></g>
<path d="M1110 133.04616560786963 L1114.48 144.56616560786964 L1126 149.04616560786963 L1114.48 153.52616560786961 L1110 165.04616560786963 L1105.52 153.52616560786961 L1094 149.04616560786963 L1105.52 144.56616560786964Z" fill="#ff8a3d"/><path d="M90 530.2502796305344 L93.36 538.8902796305343 L102 542.2502796305344 L93.36 545.6102796305344 L90 554.2502796305344 L86.64 545.6102796305344 L78 542.2502796305344 L86.64 538.8902796305343Z" fill="#6c4ee0"/><path d="M700 62.00038644718006 L702.8 69.20038644718007 L710 72.00038644718006 L702.8 74.80038644718006 L700 82.00038644718006 L697.2 74.80038644718006 L690 72.00038644718006 L697.2 69.20038644718007Z" fill="#b6a5f5"/>
</svg>