<svg xmlns="http://www.w3.org/2000/svg" width="1200" height="675" viewBox="0 0 1200 675" role="img">
<defs>
  <linearGradient id="bg" x1="0" y1="0" x2="1" y2="1"><stop offset="0" stop-color="#eef0ff"/><stop offset="1" stop-color="#f7f8ff"/></linearGradient>
  <filter id="blur" x="-30%" y="-30%" width="160%" height="160%"><feGaussianBlur stdDeviation="14"/></filter>
</defs>
<rect width="1200" height="675" fill="url(#bg)"/>
<circle cx="975" cy="111" r="187" fill="#dadfff" opacity="0.7"/>
<circle cx="179" cy="534" r="255" fill="#dadfff" opacity="0.6"/>
<circle cx="750" cy="350" r="290" fill="none" stroke="#f5a3c0" stroke-width="2" stroke-dasharray="4 12" opacity="0.6"/>
<ellipse cx="750" cy="360" rx="330" ry="250" fill="#ffffff" opacity="0.45"/>
<circle cx="70" cy="50" r="4" fill="#e0457b" opacity="0.16"/><circle cx="98" cy="50" r="4" fill="#e0457b" opacity="0.16"/><circle cx="126" cy="50" r="4" fill="#e0457b" opacity="0.16"/><circle cx="154" cy="50" r="4" fill="#e0457b" opacity="0.16"/><circle cx="182" cy="50" r="4" fill="#e0457b" opacity="0.16"/><circle cx="210" cy="50" r="4" fill="#e0457b" opacity="0.16"/><circle cx="238" cy="50" r="4" fill="#e0457b" opacity="0.16"/><circle cx="70" cy="78" r="4" fill="#e0457b" opacity="0.16"/><circle cx="98" cy="78" r="4" fill="#e0457b" opacity="0.16"/><circle cx="126" cy="78" r="4" fill="#e0457b" opacity="0.16"/><circle cx="154" cy="78" r="4" fill="#e0457b" opacity="0.16"/><circle cx="182" cy="78" r="4" fill="#e0457b" opacity="0.16"/><circle cx="210" cy="78" r="4" fill="#e0457b" opacity="0.16"/><circle cx="238" cy="78" r="4" fill="#e0457b" opacity="0.16"/><circle cx="70" cy="106" r="4" fill="#e0457b" opacity="0.16"/><circle cx="98" cy="106" r="4" fill="#e0457b" opacity="0.16"/><circle cx="126" cy="106" r="4" fill="#e0457b" opacity="0.16"/><circle cx="154" cy="106" r="4" fill="#e0457b" opacity="0.16"/><circle cx="182" cy="106" r="4" fill="#e0457b" opacity="0.16"/><circle cx="210" cy="106" r="4" fill="#e0457b" opacity="0.16"/><circle cx="238" cy="106" r="4" fill="#e0457b" opacity="0.16"/><circle cx="70" cy="134" r="4" fill="#e0457b" opacity="0.16"/><circle cx="98" cy="134" r="4" fill="#e0457b" opacity="0.16"/><circle cx="126" cy="134" r="4" fill="#e0457b" opacity="0.16"/><circle cx="154" cy="134" r="4" fill="#e0457b" opacity="0.16"/><circle cx="182" cy="134" r="4" fill="#e0457b" opacity="0.16"/><circle cx="210" cy="134" r="4" fill="#e0457b" opacity="0.16"/><circle cx="238" cy="134" r="4" fill="#e0457b" opacity="0.16"/><circle cx="70" cy="162" r="4" fill="#e0457b" opacity="0.16"/><circle cx="98" cy="162" r="4" fill="#e0457b" opacity="0.16"/><circle cx="126" cy="162" r="4" fill="#e0457b" opacity="0.16"/><circle cx="154" cy="162" r="4" fill="#e0457b" opacity="0.16"/><circle cx="182" cy="162" r="4" fill="#e0457b" opacity="0.16"/><circle cx="210" cy="162" r="4" fill="#e0457b" opacity="0.16"/><circle cx="238" cy="162" r="4" fill="#e0457b" opacity="0.16"/>
<g transform="translate(406.0,100.2) scale(1.72)">
  <ellipse cx="200" cy="256" rx="160" ry="10" fill="#1f2a44" opacity="0.10"/>
  <path d="M40 210 Q40 176 72 170 L118 164 Q150 120 200 118 L262 118 Q300 120 326 164 L350 170 Q366 176 366 200 L366 216 Q366 226 354 226 L52 226 Q40 226 40 214Z" fill="#e0457b"/>
  <path d="M40 206 L366 200 L366 216 Q366 226 354 226 L52 226 Q40 226 40 214Z" fill="#b52c5d"/>
  <path d="M134 164 Q160 132 200 130 L226 130 L226 164Z" fill="#b9dcfb"/>
  <path d="M236 130 L262 130 Q290 132 308 164 L236 164Z" fill="#d6ecff"/>
  <rect x="226" y="128" width="10" height="38" fill="#e0457b"/>
  <rect x="338" y="178" width="22" height="10" rx="5" fill="#ffe08a"/>
  <rect x="42" y="180" width="16" height="10" rx="5" fill="#ff8a80"/>
  <path d="M190 182 L210 182" stroke="#ffffff" stroke-width="4" stroke-linecap="round" opacity="0.7"/>
  <circle cx="108" cy="226" r="28" fill="#273248"/><circle cx="108" cy="226" r="15.400000000000002" fill="#cbd5e1"/><circle cx="108" cy="226" r="5.6000000000000005" fill="#94a3b8"/><circle cx="298" cy="226" r="28" fill="#273248"/><circle cx="298" cy="226" r="15.400000000000002" fill="#cbd5e1"/><circle cx="298" cy="226" r="5.6000000000000005" fill="#94a3b8"/></g>

  <rect x="157" y="134" width="290" height="236" rx="30" fill="#1f2a44" opacity="0.10" filter="url(#blur)"/>
  <rect x="153" y="120" width="290" height="236" rx="30" fill="#ffffff"/><g transform="translate(178,136) scale(0.6)">
  <ellipse cx="200" cy="266" rx="140" ry="10" fill="#1f2a44" opacity="0.10"/>
  <g transform="rotate(5 220 160)"><rect x="96" y="86" width="248" height="156" rx="18" fill="#f5a3c0"/></g>
  <rect x="70" y="80" width="260" height="164" rx="18" fill="#ffffff"/>
  <path d="M70 98 Q70 80 88 80 L312 80 Q330 80 330 98 L330 118 L70 118Z" fill="#e0457b"/>
  <rect x="92" y="136" width="70" height="84" rx="10" fill="#f5a3c0"/>
  <circle cx="127" cy="166" r="16" fill="#ffffff"/><path d="M103 214 Q127 180 151 214Z" fill="#ffffff"/>
  <rect x="180" y="140" width="120" height="10" rx="5" fill="#e2e8f0"/><rect x="180" y="162" width="90" height="10" rx="5" fill="#e2e8f0"/><rect x="180" y="184" width="104" height="10" rx="5" fill="#e2e8f0"/>
  <rect x="180" y="204" width="56" height="16" rx="5" fill="#ffb020"/>
  <path d="M290 94 L304 99 L304 108 Q304 116 290 120 Q276 116 276 108 L276 99Z" fill="#ffffff" opacity="0.9"/></g>

  <rect x="1033" y="285" width="118" height="118" rx="30" fill="#1f2a44" opacity="0.10" filter="url(#blur)"/>
  <rect x="1029" y="271" width="118" height="118" rx="30" fill="#ffffff"/><g transform="translate(1052,294) scale(1.5)"><circle cx="24" cy="24" r="19" fill="#e0457b"/><path d="M15 24 L21 30 L33 17" fill="none" stroke="#ffffff" stroke-width="5" stroke-linecap="round" stroke-linejoin="round"/></g>
  <rect x="241" y="425" width="118" height="118" rx="30" fill="#1f2a44" opacity="0.10" filter="url(#blur)"/>
  <rect x="237" y="411" width="118" height="118" rx="30" fill="#ffffff"/><g transform="translate(260,434) scale(1.5)"><path d="M10 4 L30 4 L39 13 L39 44 L10 44Z" fill="#ffffff" stroke="#ffb020" stroke-width="3" stroke-linejoin="round"/><path d="M16 20 H32 M16 27 H32 M16 34 H26" stroke="#ffb020" stroke-width="3.5" stroke-linecap="round"/></g>
<path d="M90 138.4611409585923 L94.48 149.9811409585923 L106 154.4611409585923 L94.48 158.94114095859229 L90 170.4611409585923 L85.52 158.94114095859229 L74 154.4611409585923 L85.52 149.9811409585923Z" fill="#ffb020"/><path d="M1110 508.9248226741329 L1113.36 517.5648226741329 L1122 520.9248226741329 L1113.36 524.2848226741329 L1110 532.9248226741329 L1106.64 524.2848226741329 L1098 520.9248226741329 L1106.64 517.5648226741329Z" fill="#e0457b"/><path d="M500 76.68524998007342 L502.8 83.88524998007343 L510 86.68524998007342 L502.8 89.48524998007342 L500 96.68524998007342 L497.2 89.48524998007342 L490 86.68524998007342 L497.2 83.88524998007343Z" fill="#f5a3c0"/>
</svg>