<svg xmlns="http://www.w3.org/2000/svg" width="1200" height="675" viewBox="0 0 1200 675" role="img">
<defs>
  <linearGradient id="bg" x1="0" y1="0" x2="1" y2="1"><stop offset="0" stop-color="#eaf7ef"/><stop offset="1" stop-color="#f6fbf8"/></linearGradient>
  <filter id="blur" x="-30%" y="-30%" width="160%" height="160%"><feGaussianBlur stdDeviation="14"/></filter>
</defs>
<rect width="1200" height="675" fill="url(#bg)"/>
<circle cx="158" cy="185" r="172" fill="#cdeedb" opacity="0.7"/>
<circle cx="1019" cy="526" r="229" fill="#cdeedb" opacity="0.6"/>
<circle cx="450" cy="350" r="290" fill="none" stroke="#ffdcb8" stroke-width="2" stroke-dasharray="4 12" opacity="0.6"/>
<ellipse cx="450" cy="360" rx="330" ry="250" fill="#ffffff" opacity="0.45"/>
<circle cx="930" cy="50" r="4" fill="#ff9f43" opacity="0.16"/><circle cx="958" cy="50" r="4" fill="#ff9f43" opacity="0.16"/><circle cx="986" cy="50" r="4" fill="#ff9f43" opacity="0.16"/><circle cx="1014" cy="50" r="4" fill="#ff9f43" opacity="0.16"/><circle cx="1042" cy="50" r="4" fill="#ff9f43" opacity="0.16"/><circle cx="1070" cy="50" r="4" fill="#ff9f43" opacity="0.16"/><circle cx="1098" cy="50" r="4" fill="#ff9f43" opacity="0.16"/><circle cx="930" cy="78" r="4" fill="#ff9f43" opacity="0.16"/><circle cx="958" cy="78" r="4" fill="#ff9f43" opacity="0.16"/><circle cx="986" cy="78" r="4" fill="#ff9f43" opacity="0.16"/><circle cx="1014" cy="78" r="4" fill="#ff9f43" opacity="0.16"/><circle cx="1042" cy="78" r="4" fill="#ff9f43" opacity="0.16"/><circle cx="1070" cy="78" r="4" fill="#ff9f43" opacity="0.16"/><circle cx="1098" cy="78" r="4" fill="#ff9f43" opacity="0.16"/><circle cx="930" cy="106" r="4" fill="#ff9f43" opacity="0.16"/><circle cx="958" cy="106" r="4" fill="#ff9f43" opacity="0.16"/><circle cx="986" cy="106" r="4" fill="#ff9f43" opacity="0.16"/><circle cx="1014" cy="106" r="4" fill="#ff9f43" opacity="0.16"/><circle cx="1042" cy="106" r="4" fill="#ff9f43" opacity="0.16"/><circle cx="1070" cy="106" r="4" fill="#ff9f43" opacity="0.16"/><circle cx="1098" cy="106" r="4" fill="#ff9f43" opacity="0.16"/><circle cx="930" cy="134" r="4" fill="#ff9f43" opacity="0.16"/><circle cx="958" cy="134" r="4" fill="#ff9f43" opacity="0.16"/><circle cx="986" cy="134" r="4" fill="#ff9f43" opacity="0.16"/><circle cx="1014" cy="134" r="4" fill="#ff9f43" opacity="0.16"/><circle cx="1042" cy="134" r="4" fill="#ff9f43" opacity="0.16"/><circle cx="1070" cy="134" r="4" fill="#ff9f43" opacity="0.16"/><circle cx="1098" cy="134" r="4" fill="#ff9f43" opacity="0.16"/><circle cx="930" cy="162" r="4" fill="#ff9f43" opacity="0.16"/><circle cx="958" cy="162" r="4" fill="#ff9f43" opacity="0.16"/><circle cx="986" cy="162" r="4" fill="#ff9f43" opacity="0.16"/><circle cx="1014" cy="162" r="4" fill="#ff9f43" opacity="0.16"/><circle cx="1042" cy="162" r="4" fill="#ff9f43" opacity="0.16"/><circle cx="1070" cy="162" r="4" fill="#ff9f43" opacity="0.16"/><circle cx="1098" cy="162" r="4" fill="#ff9f43" opacity="0.16"/>
<g transform="translate(106.0,100.2) scale(1.72)">
  <ellipse cx="200" cy="256" rx="160" ry="10" fill="#1f2a44" opacity="0.10"/>
  <path d="M40 210 Q40 176 72 170 L118 164 Q150 120 200 118 L262 118 Q300 120 326 164 L350 170 Q366 176 366 200 L366 216 Q366 226 354 226 L52 226 Q40 226 40 214Z" fill="#ff9f43"/>
  <path d="M40 206 L366 200 L366 216 Q366 226 354 226 L52 226 Q40 226 40 214Z" fill="#e07b1a"/>
  <path d="M134 164 Q160 132 200 130 L226 130 L226 164Z" fill="#b9dcfb"/>
  <path d="M236 130 L262 130 Q290 132 308 164 L236 164Z" fill="#d6ecff"/>
  <rect x="226" y="128" width="10" height="38" fill="#ff9f43"/>
  <rect x="338" y="178" width="22" height="10" rx="5" fill="#ffe08a"/>
  <rect x="42" y="180" width="16" height="10" rx="5" fill="#ff8a80"/>
  <path d="M190 182 L210 182" stroke="#ffffff" stroke-width="4" stroke-linecap="round" opacity="0.7"/>
  <circle cx="108" cy="226" r="28" fill="#273248"/><circle cx="108" cy="226" r="15.400000000000002" fill="#cbd5e1"/><circle cx="108" cy="226" r="5.6000000000000005" fill="#94a3b8"/><circle cx="298" cy="226" r="28" fill="#273248"/><circle cx="298" cy="226" r="15.400000000000002" fill="#cbd5e1"/><circle cx="298" cy="226" r="5.6000000000000005" fill="#94a3b8"/></g>

  <rect x="761" y="134" width="290" height="236" rx="30" fill="#1f2a44" opacity="0.10" filter="url(#blur)"/>
  <rect x="757" y="120" width="290" height="236" rx="30" fill="#ffffff"/><g transform="translate(782,136) scale(0.6)">
  <ellipse cx="200" cy="266" rx="140" ry="10" fill="#1f2a44" opacity="0.10"/>
  <g transform="rotate(5 220 160)"><rect x="96" y="86" width="248" height="156" rx="18" fill="#ffdcb8"/></g>
  <rect x="70" y="80" width="260" height="164" rx="18" fill="#ffffff"/>
  <path d="M70 98 Q70 80 88 80 L312 80 Q330 80 330 98 L330 118 L70 118Z" fill="#ff9f43"/>
  <rect x="92" y="136" width="70" height="84" rx="10" fill="#ffdcb8"/>
  <circle cx="127" cy="166" r="16" fill="#ffffff"/><path d="M103 214 Q127 180 151 214Z" fill="#ffffff"/>
  <rect x="180" y="140" width="120" height="10" rx="5" fill="#e2e8f0"/><rect x="180" y="162" width="90" height="10" rx="5" fill="#e2e8f0"/><rect x="180" y="184" width="104" height="10" rx="5" fill="#e2e8f0"/>
  <rect x="180" y="204" width="56" height="16" rx="5" fill="#1f9d6b"/>
  <path d="M290 94 L304 99 L304 108 Q304 116 290 120 Q276 116 276 108 L276 99Z" fill="#ffffff" opacity="0.9"/></g>

  <rect x="57" y="285" width="118" height="118" rx="30" fill="#1f2a44" opacity="0.10" filter="url(#blur)"/>
  <rect x="53" y="271" width="118" height="118" rx="30" fill="#ffffff"/><g transform="translate(76,294) scale(1.5)"><rect x="5" y="9" width="38" height="34" rx="6" fill="#ffffff" stroke="#ff9f43" stroke-width="3"/><rect x="5" y="9" width="38" height="10" rx="5" fill="#ff9f43"/><rect x="13" y="4" width="4" height="10" rx="2" fill="#1f2a44"/><rect x="31" y="4" width="4" height="10" rx="2" fill="#1f2a44"/><rect x="27" y="28" width="9" height="8" rx="2" fill="#1f9d6b"/></g>
  <rect x="849" y="425" width="118" height="118" rx="30" fill="#1f2a44" opacity="0.10" filter="url(#blur)"/>
  <rect x="845" y="411" width="118" height="118" rx="30" fill="#ffffff"/><g transform="translate(868,434) scale(1.5)"><path d="M5 40 H43" stroke="#94a3b8" stroke-width="3" stroke-linecap="round"/><path d="M7 33 L18 22 L26 28 L41 11" fill="none" stroke="#1f9d6b" stroke-width="5" stroke-linecap="round" stroke-linejoin="round"/><path d="M32 10 H42 V20" fill="none" stroke="#1f9d6b" stroke-width="5" stroke-linecap="round" stroke-linejoin="round"/></g>
<path d="M1110 108.7003541700542 L1114.48 120.2203541700542 L1126 124.7003541700542 L1114.48 129.1803541700542 L1110 140.7003541700542 L1105.52 129.1803541700542 L1094 124.7003541700542 L1105.52 120.2203541700542Z" fill="#1f9d6b"/><path d="M90 509.87142406590283 L93.36 518.5114240659028 L102 521.8714240659028 L93.36 525.2314240659028 L90 533.8714240659028 L86.64 525.2314240659028 L78 521.8714240659028 L86.64 518.5114240659028Z" fill="#ff9f43"/><path d="M700 72.18795616412535 L702.8 79.38795616412536 L710 82.18795616412535 L702.8 84.98795616412535 L700 92.18795616412535 L697.2 84.98795616412535 L690 82.18795616412535 L697.2 79.38795616412536Z" fill="#ffdcb8"/>
</svg>