<svg xmlns="http://www.w3.org/2000/svg" width="1200" height="675" viewBox="0 0 1200 675" role="img">
<defs>
  <linearGradient id="bg" x1="0" y1="0" x2="1" y2="1"><stop offset="0" stop-color="#fdeef3"/><stop offset="1" stop-color="#fff7fa"/></linearGradient>
  <filter id="blur" x="-30%" y="-30%" width="160%" height="160%"><feGaussianBlur stdDeviation="14"/></filter>
</defs>
<rect width="1200" height="675" fill="url(#bg)"/>
<circle cx="975" cy="133" r="190" fill="#fad3df" opacity="0.7"/>
<circle cx="179" cy="572" r="255" fill="#fad3df" opacity="0.6"/>
<circle cx="750" cy="350" r="290" fill="none" stroke="#f5a3c0" stroke-width="2" stroke-dasharray="4 12" opacity="0.6"/>
<ellipse cx="750" cy="360" rx="330" ry="250" fill="#ffffff" opacity="0.45"/>
<circle cx="70" cy="50" r="4" fill="#e0457b" opacity="0.16"/><circle cx="98" cy="50" r="4" fill="#e0457b" opacity="0.16"/><circle cx="126" cy="50" r="4" fill="#e0457b" opacity="0.16"/><circle cx="154" cy="50" r="4" fill="#e0457b" opacity="0.16"/><circle cx="182" cy="50" r="4" fill="#e0457b" opacity="0.16"/><circle cx="210" cy="50" r="4" fill="#e0457b" opacity="0.16"/><circle cx="238" cy="50" r="4" fill="#e0457b" opacity="0.16"/><circle cx="70" cy="78" r="4" fill="#e0457b" opacity="0.16"/><circle cx="98" cy="78" r="4" fill="#e0457b" opacity="0.16"/><circle cx="126" cy="78" r="4" fill="#e0457b" opacity="0.16"/><circle cx="154" cy="78" r="4" fill="#e0457b" opacity="0.16"/><circle cx="182" cy="78" r="4" fill="#e0457b" opacity="0.16"/><circle cx="210" cy="78" r="4" fill="#e0457b" opacity="0.16"/><circle cx="238" cy="78" r="4" fill="#e0457b" opacity="0.16"/><circle cx="70" cy="106" r="4" fill="#e0457b" opacity="0.16"/><circle cx="98" cy="106" r="4" fill="#e0457b" opacity="0.16"/><circle cx="126" cy="106" r="4" fill="#e0457b" opacity="0.16"/><circle cx="154" cy="106" r="4" fill="#e0457b" opacity="0.16"/><circle cx="182" cy="106" r="4" fill="#e0457b" opacity="0.16"/><circle cx="210" cy="106" r="4" fill="#e0457b" opacity="0.16"/><circle cx="238" cy="106" r="4" fill="#e0457b" opacity="0.16"/><circle cx="70" cy="134" r="4" fill="#e0457b" opacity="0.16"/><circle cx="98" cy="134" r="4" fill="#e0457b" opacity="0.16"/><circle cx="126" cy="134" r="4" fill="#e0457b" opacity="0.16"/><circle cx="154" cy="134" r="4" fill="#e0457b" opacity="0.16"/><circle cx="182" cy="134" r="4" fill="#e0457b" opacity="0.16"/><circle cx="210" cy="134" r="4" fill="#e0457b" opacity="0.16"/><circle cx="238" cy="134" r="4" fill="#e0457b" opacity="0.16"/><circle cx="70" cy="162" r="4" fill="#e0457b" opacity="0.16"/><circle cx="98" cy="162" r="4" fill="#e0457b" opacity="0.16"/><circle cx="126" cy="162" r="4" fill="#e0457b" opacity="0.16"/><circle cx="154" cy="162" r="4" fill="#e0457b" opacity="0.16"/><circle cx="182" cy="162" r="4" fill="#e0457b" opacity="0.16"/><circle cx="210" cy="162" r="4" fill="#e0457b" opacity="0.16"/><circle cx="238" cy="162" r="4" fill="#e0457b" opacity="0.16"/>
<g transform="translate(406.0,100.2) scale(1.72)">
  <ellipse cx="200" cy="264" rx="150" ry="9" fill="#1f2a44" opacity="0.10"/>
  <path d="M60 258 Q60 176 128 172 Q196 176 196 258Z" fill="#e0457b"/>
  <circle cx="128" cy="132" r="34" fill="#e9b48f"/>
  <path d="M94 128 Q96 92 128 92 Q160 92 162 128 Q146 110 94 128Z" fill="#2d1e16"/>
  <path d="M204 258 Q204 176 272 172 Q340 176 340 258Z" fill="#7c5cff"/>
  <circle cx="272" cy="132" r="34" fill="#f3cfb3"/>
  <path d="M238 134 Q232 88 272 90 Q312 88 306 134 Q300 104 272 108 Q246 104 238 134Z" fill="#7a4a2a"/>
  <path d="M128 64 L128 60 Q128 40 150 40 L196 40 Q216 40 216 60 L216 72 Q216 92 196 92 L170 92 L154 104 L156 92 Q128 90 128 72Z" fill="#ffffff"/>
  <rect x="146" y="52" width="54" height="7" rx="3.5" fill="#f5a3c0"/><rect x="146" y="64" width="40" height="7" rx="3.5" fill="#f5a3c0"/>
  <path d="M184 216 L216 216" stroke="#ffffff" stroke-width="10" stroke-linecap="round" opacity="0.9"/></g>

  <rect x="157" y="134" width="290" height="236" rx="30" fill="#1f2a44" opacity="0.10" filter="url(#blur)"/>
  <rect x="153" y="120" width="290" height="236" rx="30" fill="#ffffff"/><g transform="translate(178,136) scale(0.6)">
  <ellipse cx="200" cy="268" rx="150" ry="10" fill="#1f2a44" opacity="0.10"/>
  <g transform="rotate(-12 120 160)"><rect x="58" y="62" width="124" height="170" rx="14" fill="#ffffff"/><rect x="58" y="62" width="124" height="40" rx="14" fill="#f5a3c0"/><rect x="58" y="88" width="124" height="14" fill="#f5a3c0"/><rect x="76" y="118" width="88" height="8" rx="4" fill="#e2e8f0"/><rect x="76" y="138" width="78" height="8" rx="4" fill="#e2e8f0"/><rect x="76" y="158" width="68" height="8" rx="4" fill="#e2e8f0"/></g><g transform="rotate(-4 168 160)"><rect x="106" y="62" width="124" height="170" rx="14" fill="#ffffff"/><rect x="106" y="62" width="124" height="40" rx="14" fill="#7c5cff"/><rect x="106" y="88" width="124" height="14" fill="#7c5cff"/><rect x="124" y="118" width="88" height="8" rx="4" fill="#e2e8f0"/><rect x="124" y="138" width="78" height="8" rx="4" fill="#e2e8f0"/><rect x="124" y="158" width="68" height="8" rx="4" fill="#e2e8f0"/></g><g transform="rotate(6 214 160)"><rect x="152" y="62" width="124" height="170" rx="14" fill="#ffffff"/><rect x="152" y="62" width="124" height="40" rx="14" fill="#e0457b"/><rect x="152" y="88" width="124" height="14" fill="#e0457b"/><rect x="170" y="118" width="88" height="8" rx="4" fill="#e2e8f0"/><rect x="170" y="138" width="78" height="8" rx="4" fill="#e2e8f0"/><rect x="170" y="158" width="68" height="8" rx="4" fill="#e2e8f0"/></g>
  <path d="M270 180 L340 206 L340 236 Q340 262 300 276 Q260 262 260 236 L260 206Z" fill="#b52c5d" transform="translate(0,-26)"/>
  <path d="M284 210 L296 222 L318 198" fill="none" stroke="#ffffff" stroke-width="7" stroke-linecap="round" stroke-linejoin="round"/></g>

  <rect x="1033" y="285" width="118" height="118" rx="30" fill="#1f2a44" opacity="0.10" filter="url(#blur)"/>
  <rect x="1029" y="271" width="118" height="118" rx="30" fill="#ffffff"/><g transform="translate(1052,294) scale(1.5)"><path d="M4 20 L14 12 L22 16 L30 12 L44 20 L36 32 L26 38 L20 34 L12 30Z" fill="#e0457b"/><path d="M18 24 L26 30 M22 20 L30 26" stroke="#ffffff" stroke-width="2.5" stroke-linecap="round"/></g>
  <rect x="241" y="425" width="118" height="118" rx="30" fill="#1f2a44" opacity="0.10" filter="url(#blur)"/>
  <rect x="237" y="411" width="118" height="118" rx="30" fill="#ffffff"/><g transform="translate(260,434) scale(1.5)"><circle cx="21" cy="21" r="13" fill="none" stroke="#7c5cff" stroke-width="5"/><path d="M31 31 L41 41" stroke="#1f2a44" stroke-width="6" stroke-linecap="round"/></g>
<path d="M90 116.7213483210653 L94.48 128.24134832106532 L106 132.7213483210653 L94.48 137.2013483210653 L90 148.7213483210653 L85.52 137.2013483210653 L74 132.7213483210653 L85.52 128.24134832106532Z" fill="#7c5cff"/><path d="M1110 511.46582686528563 L1113.36 520.1058268652856 L1122 523.4658268652856 L1113.36 526.8258268652856 L1110 535.4658268652856 L1106.64 526.8258268652856 L1098 523.4658268652856 L1106.64 520.1058268652856Z" fill="#e0457b"/><path d="M500 89.63621544186026 L502.8 96.83621544186026 L510 99.63621544186026 L502.8 102.43621544186026 L500 109.63621544186026 L497.2 102.43621544186026 L490 99.63621544186026 L497.2 96.83621544186026Z" fill="#f5a3c0"/>
</svg>