<svg xmlns="http://www.w3.org/2000/svg" width="1200" height="675" viewBox="0 0 1200 675" role="img">
<defs>
  <linearGradient id="bg" x1="0" y1="0" x2="1" y2="1"><stop offset="0" stop-color="#e3f6fb"/><stop offset="1" stop-color="#f4fbfd"/></linearGradient>
  <filter id="blur" x="-30%" y="-30%" width="160%" height="160%"><feGaussianBlur stdDeviation="14"/></filter>
</defs>
<rect width="1200" height="675" fill="url(#bg)"/>
<circle cx="996" cy="186" r="203" fill="#c4ecf6" opacity="0.7"/>
<circle cx="146" cy="533" r="253" fill="#c4ecf6" opacity="0.6"/>
<circle cx="600" cy="350" r="290" fill="none" stroke="#7fd1e6" stroke-width="2" stroke-dasharray="4 12" opacity="0.6"/>
<ellipse cx="600" cy="360" rx="330" ry="250" fill="#ffffff" opacity="0.45"/>
<circle cx="70" cy="50" r="4" fill="#0e8fb3" opacity="0.16"/><circle cx="98" cy="50" r="4" fill="#0e8fb3" opacity="0.16"/><circle cx="126" cy="50" r="4" fill="#0e8fb3" opacity="0.16"/><circle cx="154" cy="50" r="4" fill="#0e8fb3" opacity="0.16"/><circle cx="182" cy="50" r="4" fill="#0e8fb3" opacity="0.16"/><circle cx="210" cy="50" r="4" fill="#0e8fb3" opacity="0.16"/><circle cx="238" cy="50" r="4" fill="#0e8fb3" opacity="0.16"/><circle cx="70" cy="78" r="4" fill="#0e8fb3" opacity="0.16"/><circle cx="98" cy="78" r="4" fill="#0e8fb3" opacity="0.16"/><circle cx="126" cy="78" r="4" fill="#0e8fb3" opacity="0.16"/><circle cx="154" cy="78" r="4" fill="#0e8fb3" opacity="0.16"/><circle cx="182" cy="78" r="4" fill="#0e8fb3" opacity="0.16"/><circle cx="210" cy="78" r="4" fill="#0e8fb3" opacity="0.16"/><circle cx="238" cy="78" r="4" fill="#0e8fb3" opacity="0.16"/><circle cx="70" cy="106" r="4" fill="#0e8fb3" opacity="0.16"/><circle cx="98" cy="106" r="4" fill="#0e8fb3" opacity="0.16"/><circle cx="126" cy="106" r="4" fill="#0e8fb3" opacity="0.16"/><circle cx="154" cy="106" r="4" fill="#0e8fb3" opacity="0.16"/><circle cx="182" cy="106" r="4" fill="#0e8fb3" opacity="0.16"/><circle cx="210" cy="106" r="4" fill="#0e8fb3" opacity="0.16"/><circle cx="238" cy="106" r="4" fill="#0e8fb3" opacity="0.16"/><circle cx="70" cy="134" r="4" fill="#0e8fb3" opacity="0.16"/><circle cx="98" cy="134" r="4" fill="#0e8fb3" opacity="0.16"/><circle cx="126" cy="134" r="4" fill="#0e8fb3" opacity="0.16"/><circle cx="154" cy="134" r="4" fill="#0e8fb3" opacity="0.16"/><circle cx="182" cy="134" r="4" fill="#0e8fb3" opacity="0.16"/><circle cx="210" cy="134" r="4" fill="#0e8fb3" opacity="0.16"/><circle cx="238" cy="134" r="4" fill="#0e8fb3" opacity="0.16"/><circle cx="70" cy="162" r="4" fill="#0e8fb3" opacity="0.16"/><circle cx="98" cy="162" r="4" fill="#0e8fb3" opacity="0.16"/><circle cx="126" cy="162" r="4" fill="#0e8fb3" opacity="0.16"/><circle cx="154" cy="162" r="4" fill="#0e8fb3" opacity="0.16"/><circle cx="182" cy="162" r="4" fill="#0e8fb3" opacity="0.16"/><circle cx="210" cy="162" r="4" fill="#0e8fb3" opacity="0.16"/><circle cx="238" cy="162" r="4" fill="#0e8fb3" opacity="0.16"/>
<g transform="translate(210.0,63.9) scale(1.95)">
  
  <path d="M10 250 Q 45 240 80 250 T 150 250 T 220 250 T 290 250 T 360 250 T 400 250 L400 290 L10 290Z" fill="#7cc4f2" opacity="0.55"/>
  <path d="M30 264 Q 60 256 90 264 T 150 264 T 210 264 T 270 264 T 330 264 T 380 264" fill="none" stroke="#4aa3df" stroke-width="3" stroke-linecap="round" opacity="0.6"/>
  <path d="M40 186 L360 186 L360 202 L40 202Z" fill="#c08a52"/>
  <line x1="60" y1="186" x2="60" y2="202" stroke="#8a5a2b" stroke-width="2"/><line x1="100" y1="186" x2="100" y2="202" stroke="#8a5a2b" stroke-width="2"/><line x1="140" y1="186" x2="140" y2="202" stroke="#8a5a2b" stroke-width="2"/><line x1="180" y1="186" x2="180" y2="202" stroke="#8a5a2b" stroke-width="2"/><line x1="220" y1="186" x2="220" y2="202" stroke="#8a5a2b" stroke-width="2"/><line x1="260" y1="186" x2="260" y2="202" stroke="#8a5a2b" stroke-width="2"/><line x1="300" y1="186" x2="300" y2="202" stroke="#8a5a2b" stroke-width="2"/><line x1="340" y1="186" x2="340" y2="202" stroke="#8a5a2b" stroke-width="2"/>
  <rect x="53" y="160" width="14" height="96" rx="4" fill="#8a5a2b"/><ellipse cx="60" cy="160" rx="7" ry="3" fill="#a8743f"/><rect x="153" y="160" width="14" height="96" rx="4" fill="#8a5a2b"/><ellipse cx="160" cy="160" rx="7" ry="3" fill="#a8743f"/><rect x="253" y="160" width="14" height="96" rx="4" fill="#8a5a2b"/><ellipse cx="260" cy="160" rx="7" ry="3" fill="#a8743f"/><rect x="343" y="160" width="14" height="96" rx="4" fill="#8a5a2b"/><ellipse cx="350" cy="160" rx="7" ry="3" fill="#a8743f"/>
  <path d="M80 222 L220 222 Q214 244 196 246 L100 246 Q84 244 80 222Z" fill="#ffffff"/>
  <path d="M110 222 L130 206 L176 206 L190 222Z" fill="#0e8fb3"/>
  <path d="M240 222 L340 222 Q334 244 318 246 L256 246 Q244 244 240 222Z" fill="#ff6b5e"/>
  <path d="M60 150 L60 100 L120 100 L120 150" fill="none" stroke="#0a6a86" stroke-width="4"/>
  <rect x="50" y="86" width="80" height="20" rx="6" fill="#0a6a86"/></g>


  <rect x="989" y="273" width="118" height="118" rx="30" fill="#1f2a44" opacity="0.10" filter="url(#blur)"/>
  <rect x="985" y="259" width="118" height="118" rx="30" fill="#ffffff"/><g transform="translate(1008,282) scale(1.5)"><path d="M24 4 L41 10 L41 23 Q41 36 24 44 Q7 36 7 23 L7 10Z" fill="#0e8fb3"/><path d="M16 24 L22 30 L33 18" fill="none" stroke="#ffffff" stroke-width="4.5" stroke-linecap="round" stroke-linejoin="round"/></g>
  <rect x="145" y="407" width="118" height="118" rx="30" fill="#1f2a44" opacity="0.10" filter="url(#blur)"/>
  <rect x="141" y="393" width="118" height="118" rx="30" fill="#ffffff"/><g transform="translate(164,416) scale(1.5)"><path d="M4 20 Q10 14 16 20 T28 20 T40 20 T46 20 M4 31 Q10 25 16 31 T28 31 T40 31 T46 31" fill="none" stroke="#ff6b5e" stroke-width="4" stroke-linecap="round"/></g>
<path d="M90 131.17824403196573 L94.48 142.69824403196574 L106 147.17824403196573 L94.48 151.65824403196572 L90 163.17824403196573 L85.52 151.65824403196572 L74 147.17824403196573 L85.52 142.69824403196574Z" fill="#ff6b5e"/><path d="M1110 514.8845145823434 L1113.36 523.5245145823434 L1122 526.8845145823434 L1113.36 530.2445145823434 L1110 538.8845145823434 L1106.64 530.2445145823434 L1098 526.8845145823434 L1106.64 523.5245145823434Z" fill="#0e8fb3"/><path d="M380 85.77230669092387 L382.8 92.97230669092387 L390 95.77230669092387 L382.8 98.57230669092387 L380 105.77230669092387 L377.2 98.57230669092387 L370 95.77230669092387 L377.2 92.97230669092387Z" fill="#7fd1e6"/>
</svg>