<svg xmlns="http://www.w3.org/2000/svg" width="1200" height="675" viewBox="0 0 1200 675" role="img">
<defs>
  <linearGradient id="bg" x1="0" y1="0" x2="1" y2="1"><stop offset="0" stop-color="#fdeef3"/><stop offset="1" stop-color="#fff7fa"/></linearGradient>
  <filter id="blur" x="-30%" y="-30%" width="160%" height="160%"><feGaussianBlur stdDeviation="14"/></filter>
</defs>
<rect width="1200" height="675" fill="url(#bg)"/>
<circle cx="183" cy="185" r="218" fill="#fad3df" opacity="0.7"/>
<circle cx="1007" cy="527" r="225" fill="#fad3df" opacity="0.6"/>
<circle cx="600" cy="350" r="290" fill="none" stroke="#f5a3c0" stroke-width="2" stroke-dasharray="4 12" opacity="0.6"/>
<ellipse cx="600" cy="360" rx="330" ry="250" fill="#ffffff" opacity="0.45"/>
<circle cx="930" cy="50" r="4" fill="#e0457b" opacity="0.16"/><circle cx="958" cy="50" r="4" fill="#e0457b" opacity="0.16"/><circle cx="986" cy="50" r="4" fill="#e0457b" opacity="0.16"/><circle cx="1014" cy="50" r="4" fill="#e0457b" opacity="0.16"/><circle cx="1042" cy="50" r="4" fill="#e0457b" opacity="0.16"/><circle cx="1070" cy="50" r="4" fill="#e0457b" opacity="0.16"/><circle cx="1098" cy="50" r="4" fill="#e0457b" opacity="0.16"/><circle cx="930" cy="78" r="4" fill="#e0457b" opacity="0.16"/><circle cx="958" cy="78" r="4" fill="#e0457b" opacity="0.16"/><circle cx="986" cy="78" r="4" fill="#e0457b" opacity="0.16"/><circle cx="1014" cy="78" r="4" fill="#e0457b" opacity="0.16"/><circle cx="1042" cy="78" r="4" fill="#e0457b" opacity="0.16"/><circle cx="1070" cy="78" r="4" fill="#e0457b" opacity="0.16"/><circle cx="1098" cy="78" r="4" fill="#e0457b" opacity="0.16"/><circle cx="930" cy="106" r="4" fill="#e0457b" opacity="0.16"/><circle cx="958" cy="106" r="4" fill="#e0457b" opacity="0.16"/><circle cx="986" cy="106" r="4" fill="#e0457b" opacity="0.16"/><circle cx="1014" cy="106" r="4" fill="#e0457b" opacity="0.16"/><circle cx="1042" cy="106" r="4" fill="#e0457b" opacity="0.16"/><circle cx="1070" cy="106" r="4" fill="#e0457b" opacity="0.16"/><circle cx="1098" cy="106" r="4" fill="#e0457b" opacity="0.16"/><circle cx="930" cy="134" r="4" fill="#e0457b" opacity="0.16"/><circle cx="958" cy="134" r="4" fill="#e0457b" opacity="0.16"/><circle cx="986" cy="134" r="4" fill="#e0457b" opacity="0.16"/><circle cx="1014" cy="134" r="4" fill="#e0457b" opacity="0.16"/><circle cx="1042" cy="134" r="4" fill="#e0457b" opacity="0.16"/><circle cx="1070" cy="134" r="4" fill="#e0457b" opacity="0.16"/><circle cx="1098" cy="134" r="4" fill="#e0457b" opacity="0.16"/><circle cx="930" cy="162" r="4" fill="#e0457b" opacity="0.16"/><circle cx="958" cy="162" r="4" fill="#e0457b" opacity="0.16"/><circle cx="986" cy="162" r="4" fill="#e0457b" opacity="0.16"/><circle cx="1014" cy="162" r="4" fill="#e0457b" opacity="0.16"/><circle cx="1042" cy="162" r="4" fill="#e0457b" opacity="0.16"/><circle cx="1070" cy="162" r="4" fill="#e0457b" opacity="0.16"/><circle cx="1098" cy="162" r="4" fill="#e0457b" opacity="0.16"/>
<g transform="translate(210.0,63.9) scale(1.95)">
  <ellipse cx="200" cy="266" rx="130" ry="9" fill="#1f2a44" opacity="0.10"/>
  <path d="M70 70 Q70 46 94 46 L306 46 Q330 46 330 70 L330 196 Q330 220 306 220 L170 220 L118 262 L126 220 L94 220 Q70 220 70 196Z" fill="#ffffff"/>
  <circle cx="136" cy="128" r="16" fill="#e0457b"/><path d="M122 132 Q120 98 150 88 L152 98 Q136 106 138 124Z" fill="#e0457b"/>
  <circle cx="184" cy="128" r="16" fill="#e0457b"/><path d="M170 132 Q168 98 198 88 L200 98 Q184 106 186 124Z" fill="#e0457b"/>
  <rect x="218" y="118" width="86" height="10" rx="5" fill="#e2e8f0"/><rect x="122" y="166" width="180" height="10" rx="5" fill="#e2e8f0"/><rect x="122" y="190" width="130" height="10" rx="5" fill="#e2e8f0"/>
  <path d="M300 200 C300 186 284 182 280 192 C276 182 260 186 260 200 C260 212 280 222 280 222 C280 222 300 212 300 200Z" fill="#7c5cff"/></g>


  <rect x="101" y="273" width="118" height="118" rx="30" fill="#1f2a44" opacity="0.10" filter="url(#blur)"/>
  <rect x="97" y="259" width="118" height="118" rx="30" fill="#ffffff"/><g transform="translate(120,282) scale(1.5)"><path d="M24 42 C10 32 4 25 4 17 C4 10 9 6 15 6 C19 6 22 8 24 12 C26 8 29 6 33 6 C39 6 44 10 44 17 C44 25 38 32 24 42Z" fill="#e0457b"/><path d="M9 22 H17 L20 15 L25 29 L29 20 L39 20" fill="none" stroke="#ffffff" stroke-width="3" stroke-linejoin="round" stroke-linecap="round"/></g>
  <rect x="945" y="407" width="118" height="118" rx="30" fill="#1f2a44" opacity="0.10" filter="url(#blur)"/>
  <rect x="941" y="393" width="118" height="118" rx="30" fill="#ffffff"/><g transform="translate(964,416) scale(1.5)"><path d="M24 5 L29.5 17 L42 18.5 L32.5 27 L35.5 40 L24 33 L12.5 40 L15.5 27 L6 18.5 L18.5 17Z" fill="#ffc83d"/></g>
<path d="M1110 123.69590642489493 L1114.48 135.21590642489494 L1126 139.69590642489493 L1114.48 144.17590642489492 L1110 155.69590642489493 L1105.52 144.17590642489492 L1094 139.69590642489493 L1105.52 135.21590642489494Z" fill="#7c5cff"/><path d="M90 529.8734926031902 L93.36 538.5134926031902 L102 541.8734926031902 L93.36 545.2334926031903 L90 553.8734926031902 L86.64 545.2334926031903 L78 541.8734926031902 L86.64 538.5134926031902Z" fill="#e0457b"/><path d="M820 68.16353270318359 L822.8 75.3635327031836 L830 78.16353270318359 L822.8 80.96353270318359 L820 88.16353270318359 L817.2 80.96353270318359 L810 78.16353270318359 L817.2 75.3635327031836Z" fill="#f5a3c0"/>
</svg>