<svg xmlns="http://www.w3.org/2000/svg" width="1200" height="675" viewBox="0 0 1200 675" role="img">
<defs>
  <linearGradient id="bg" x1="0" y1="0" x2="1" y2="1"><stop offset="0" stop-color="#fdeef3"/><stop offset="1" stop-color="#fff7fa"/></linearGradient>
  <filter id="blur" x="-30%" y="-30%" width="160%" height="160%"><feGaussianBlur stdDeviation="14"/></filter>
</defs>
<rect width="1200" height="675" fill="url(#bg)"/>
<circle cx="172" cy="169" r="220" fill="#fad3df" opacity="0.7"/>
<circle cx="1064" cy="600" r="224" fill="#fad3df" opacity="0.6"/>
<circle cx="450" cy="350" r="290" fill="none" stroke="#f5a3c0" stroke-width="2" stroke-dasharray="4 12" opacity="0.6"/>
<ellipse cx="450" cy="360" rx="330" ry="250" fill="#ffffff" opacity="0.45"/>
<circle cx="930" cy="50" r="4" fill="#e0457b" opacity="0.16"/><circle cx="958" cy="50" r="4" fill="#e0457b" opacity="0.16"/><circle cx="986" cy="50" r="4" fill="#e0457b" opacity="0.16"/><circle cx="1014" cy="50" r="4" fill="#e0457b" opacity="0.16"/><circle cx="1042" cy="50" r="4" fill="#e0457b" opacity="0.16"/><circle cx="1070" cy="50" r="4" fill="#e0457b" opacity="0.16"/><circle cx="1098" cy="50" r="4" fill="#e0457b" opacity="0.16"/><circle cx="930" cy="78" r="4" fill="#e0457b" opacity="0.16"/><circle cx="958" cy="78" r="4" fill="#e0457b" opacity="0.16"/><circle cx="986" cy="78" r="4" fill="#e0457b" opacity="0.16"/><circle cx="1014" cy="78" r="4" fill="#e0457b" opacity="0.16"/><circle cx="1042" cy="78" r="4" fill="#e0457b" opacity="0.16"/><circle cx="1070" cy="78" r="4" fill="#e0457b" opacity="0.16"/><circle cx="1098" cy="78" r="4" fill="#e0457b" opacity="0.16"/><circle cx="930" cy="106" r="4" fill="#e0457b" opacity="0.16"/><circle cx="958" cy="106" r="4" fill="#e0457b" opacity="0.16"/><circle cx="986" cy="106" r="4" fill="#e0457b" opacity="0.16"/><circle cx="1014" cy="106" r="4" fill="#e0457b" opacity="0.16"/><circle cx="1042" cy="106" r="4" fill="#e0457b" opacity="0.16"/><circle cx="1070" cy="106" r="4" fill="#e0457b" opacity="0.16"/><circle cx="1098" cy="106" r="4" fill="#e0457b" opacity="0.16"/><circle cx="930" cy="134" r="4" fill="#e0457b" opacity="0.16"/><circle cx="958" cy="134" r="4" fill="#e0457b" opacity="0.16"/><circle cx="986" cy="134" r="4" fill="#e0457b" opacity="0.16"/><circle cx="1014" cy="134" r="4" fill="#e0457b" opacity="0.16"/><circle cx="1042" cy="134" r="4" fill="#e0457b" opacity="0.16"/><circle cx="1070" cy="134" r="4" fill="#e0457b" opacity="0.16"/><circle cx="1098" cy="134" r="4" fill="#e0457b" opacity="0.16"/><circle cx="930" cy="162" r="4" fill="#e0457b" opacity="0.16"/><circle cx="958" cy="162" r="4" fill="#e0457b" opacity="0.16"/><circle cx="986" cy="162" r="4" fill="#e0457b" opacity="0.16"/><circle cx="1014" cy="162" r="4" fill="#e0457b" opacity="0.16"/><circle cx="1042" cy="162" r="4" fill="#e0457b" opacity="0.16"/><circle cx="1070" cy="162" r="4" fill="#e0457b" opacity="0.16"/><circle cx="1098" cy="162" r="4" fill="#e0457b" opacity="0.16"/>
<g transform="translate(106.0,100.2) scale(1.72)">
  <ellipse cx="200" cy="266" rx="100" ry="8" fill="#1f2a44" opacity="0.10"/>
  <rect x="120" y="36" width="160" height="20" rx="8" fill="#b52c5d"/><rect x="120" y="244" width="160" height="20" rx="8" fill="#b52c5d"/>
  <path d="M138 56 L262 56 Q262 120 214 150 Q262 180 262 244 L138 244 Q138 180 186 150 Q138 120 138 56Z" fill="#d6ecff"/>
  <path d="M158 84 L242 84 Q236 118 200 140 Q164 118 158 84Z" fill="#7c5cff"/>
  <path d="M200 150 L200 210" stroke="#7c5cff" stroke-width="4"/>
  <path d="M152 244 Q160 206 200 200 Q240 206 248 244Z" fill="#7c5cff"/></g>

  <rect x="761" y="134" width="290" height="236" rx="30" fill="#1f2a44" opacity="0.10" filter="url(#blur)"/>
  <rect x="757" y="120" width="290" height="236" rx="30" fill="#ffffff"/><g transform="translate(782,136) scale(0.6)">
  <ellipse cx="200" cy="262" rx="150" ry="9" fill="#1f2a44" opacity="0.10"/>
  <path d="M200 92 C200 62 156 50 140 80 C124 108 160 134 200 160 C240 134 276 108 260 80 C244 50 200 62 200 92Z" fill="#e0457b" opacity="0.18" transform="translate(0,-30)"/>
  
    <path d="M86.9 258 Q86.9 166 126 161.4 Q165.1 166 165.1 258Z" fill="#e0457b"/>
    <circle cx="126" cy="129.20000000000002" r="27.599999999999998" fill="#e9b48f"/>
    <path d="M98.4 126.9 Q100.7 94.70000000000002 126 99.30000000000001 Q153.6 94.70000000000002 153.6 126.9 Q137.5 110.80000000000001 98.4 126.9Z" fill="#2d1e16"/>
  
    <path d="M234.6 258 Q234.6 170 272 165.6 Q309.4 170 309.4 258Z" fill="#7c5cff"/>
    <circle cx="272" cy="134.79999999999998" r="26.400000000000002" fill="#f3cfb3"/>
    <path d="M245.6 132.6 Q247.8 101.79999999999998 272 106.19999999999999 Q298.4 101.79999999999998 298.4 132.6 Q283 117.19999999999999 245.6 132.6Z" fill="#6b3f22"/>
  
    <path d="M173.48 258 Q173.48 195.6 200 192.48000000000002 Q226.52 195.6 226.52 258Z" fill="#f5a3c0"/>
    <circle cx="200" cy="170.64" r="18.72" fill="#f0c09b"/>
    <path d="M181.28 169.07999999999998 Q182.84 147.24 200 150.36 Q218.72 147.24 218.72 169.07999999999998 Q207.8 158.16 181.28 169.07999999999998Z" fill="#3b2a20"/>
  <path d="M200 70 C200 52 176 46 168 62 C160 78 180 92 200 104 C220 92 240 78 232 62 C224 46 200 52 200 70Z" fill="#e0457b"/></g>

  <rect x="57" y="285" width="118" height="118" rx="30" fill="#1f2a44" opacity="0.10" filter="url(#blur)"/>
  <rect x="53" y="271" width="118" height="118" rx="30" fill="#ffffff"/><g transform="translate(76,294) scale(1.5)"><rect x="5" y="9" width="38" height="34" rx="6" fill="#ffffff" stroke="#e0457b" stroke-width="3"/><rect x="5" y="9" width="38" height="10" rx="5" fill="#e0457b"/><rect x="13" y="4" width="4" height="10" rx="2" fill="#1f2a44"/><rect x="31" y="4" width="4" height="10" rx="2" fill="#1f2a44"/><rect x="27" y="28" width="9" height="8" rx="2" fill="#7c5cff"/></g>
  <rect x="849" y="425" width="118" height="118" rx="30" fill="#1f2a44" opacity="0.10" filter="url(#blur)"/>
  <rect x="845" y="411" width="118" height="118" rx="30" fill="#ffffff"/><g transform="translate(868,434) scale(1.5)"><path d="M24 4 L41 10 L41 23 Q41 36 24 44 Q7 36 7 23 L7 10Z" fill="#7c5cff"/><path d="M16 24 L22 30 L33 18" fill="none" stroke="#ffffff" stroke-width="4.5" stroke-linecap="round" stroke-linejoin="round"/></g>
<path d="M1110 132.94392606802285 L1114.48 144.46392606802286 L1126 148.94392606802285 L1114.48 153.42392606802284 L1110 164.94392606802285 L1105.52 153.42392606802284 L1094 148.94392606802285 L1105.52 144.46392606802286Z" fill="#7c5cff"/><path d="M90 537.4772923458368 L93.36 546.1172923458367 L102 549.4772923458368 L93.36 552.8372923458368 L90 561.4772923458368 L86.64 552.8372923458368 L78 549.4772923458368 L86.64 546.1172923458367Z" fill="#e0457b"/><path d="M700 81.50500397896394 L702.8 88.70500397896394 L710 91.50500397896394 L702.8 94.30500397896394 L700 101.50500397896394 L697.2 94.30500397896394 L690 91.50500397896394 L697.2 88.70500397896394Z" fill="#f5a3c0"/>
</svg>