<svg xmlns="http://www.w3.org/2000/svg" width="1200" height="675" viewBox="0 0 1200 675" role="img">
<defs>
  <linearGradient id="bg" x1="0" y1="0" x2="1" y2="1"><stop offset="0" stop-color="#f1effe"/><stop offset="1" stop-color="#f9f8ff"/></linearGradient>
  <filter id="blur" x="-30%" y="-30%" width="160%" height="160%"><feGaussianBlur stdDeviation="14"/></filter>
</defs>
<rect width="1200" height="675" fill="url(#bg)"/>
<circle cx="986" cy="121" r="185" fill="#e0dbfc" opacity="0.7"/>
<circle cx="140" cy="588" r="260" fill="#e0dbfc" opacity="0.6"/>
<circle cx="750" cy="350" r="290" fill="none" stroke="#f5a3c0" stroke-width="2" stroke-dasharray="4 12" opacity="0.6"/>
<ellipse cx="750" cy="360" rx="330" ry="250" fill="#ffffff" opacity="0.45"/>
<circle cx="70" cy="50" r="4" fill="#e0457b" opacity="0.16"/><circle cx="98" cy="50" r="4" fill="#e0457b" opacity="0.16"/><circle cx="126" cy="50" r="4" fill="#e0457b" opacity="0.16"/><circle cx="154" cy="50" r="4" fill="#e0457b" opacity="0.16"/><circle cx="182" cy="50" r="4" fill="#e0457b" opacity="0.16"/><circle cx="210" cy="50" r="4" fill="#e0457b" opacity="0.16"/><circle cx="238" cy="50" r="4" fill="#e0457b" opacity="0.16"/><circle cx="70" cy="78" r="4" fill="#e0457b" opacity="0.16"/><circle cx="98" cy="78" r="4" fill="#e0457b" opacity="0.16"/><circle cx="126" cy="78" r="4" fill="#e0457b" opacity="0.16"/><circle cx="154" cy="78" r="4" fill="#e0457b" opacity="0.16"/><circle cx="182" cy="78" r="4" fill="#e0457b" opacity="0.16"/><circle cx="210" cy="78" r="4" fill="#e0457b" opacity="0.16"/><circle cx="238" cy="78" r="4" fill="#e0457b" opacity="0.16"/><circle cx="70" cy="106" r="4" fill="#e0457b" opacity="0.16"/><circle cx="98" cy="106" r="4" fill="#e0457b" opacity="0.16"/><circle cx="126" cy="106" r="4" fill="#e0457b" opacity="0.16"/><circle cx="154" cy="106" r="4" fill="#e0457b" opacity="0.16"/><circle cx="182" cy="106" r="4" fill="#e0457b" opacity="0.16"/><circle cx="210" cy="106" r="4" fill="#e0457b" opacity="0.16"/><circle cx="238" cy="106" r="4" fill="#e0457b" opacity="0.16"/><circle cx="70" cy="134" r="4" fill="#e0457b" opacity="0.16"/><circle cx="98" cy="134" r="4" fill="#e0457b" opacity="0.16"/><circle cx="126" cy="134" r="4" fill="#e0457b" opacity="0.16"/><circle cx="154" cy="134" r="4" fill="#e0457b" opacity="0.16"/><circle cx="182" cy="134" r="4" fill="#e0457b" opacity="0.16"/><circle cx="210" cy="134" r="4" fill="#e0457b" opacity="0.16"/><circle cx="238" cy="134" r="4" fill="#e0457b" opacity="0.16"/><circle cx="70" cy="162" r="4" fill="#e0457b" opacity="0.16"/><circle cx="98" cy="162" r="4" fill="#e0457b" opacity="0.16"/><circle cx="126" cy="162" r="4" fill="#e0457b" opacity="0.16"/><circle cx="154" cy="162" r="4" fill="#e0457b" opacity="0.16"/><circle cx="182" cy="162" r="4" fill="#e0457b" opacity="0.16"/><circle cx="210" cy="162" r="4" fill="#e0457b" opacity="0.16"/><circle cx="238" cy="162" r="4" fill="#e0457b" opacity="0.16"/>
<g transform="translate(406.0,100.2) scale(1.72)">
  <ellipse cx="200" cy="268" rx="120" ry="9" fill="#1f2a44" opacity="0.10"/>
  <g transform="rotate(-6 200 150)">
    <rect x="110" y="40" width="190" height="230" rx="12" fill="#f5a3c0"/>
  </g>
  <path d="M104 34 L262 34 L300 72 L300 262 Q300 270 292 270 L112 270 Q104 270 104 262Z" fill="#ffffff"/>
  <path d="M262 34 L262 64 Q262 72 270 72 L300 72Z" fill="#e2e8f0"/>
  <rect x="128" y="62" width="100" height="12" rx="6" fill="#e0457b"/>
  <rect x="128" y="96" width="150" height="8" rx="4" fill="#e2e8f0"/><rect x="128" y="118" width="130" height="8" rx="4" fill="#e2e8f0"/><rect x="128" y="140" width="150" height="8" rx="4" fill="#e2e8f0"/><rect x="128" y="162" width="110" height="8" rx="4" fill="#e2e8f0"/><rect x="128" y="184" width="140" height="8" rx="4" fill="#e2e8f0"/>
  <circle cx="246" cy="230" r="26" fill="#22b8cf"/>
  <path d="M234 230 L244 240 L260 222" fill="none" stroke="#ffffff" stroke-width="6" stroke-linecap="round" stroke-linejoin="round"/>
  <path d="M130 238 Q144 222 156 238 T184 236" fill="none" stroke="#1f2a44" stroke-width="3" stroke-linecap="round"/></g>

  <rect x="157" y="134" width="290" height="236" rx="30" fill="#1f2a44" opacity="0.10" filter="url(#blur)"/>
  <rect x="153" y="120" width="290" height="236" rx="30" fill="#ffffff"/><g transform="translate(178,136) scale(0.6)">
  <ellipse cx="200" cy="268" rx="150" ry="10" fill="#1f2a44" opacity="0.10"/>
  <g transform="rotate(-12 120 160)"><rect x="58" y="62" width="124" height="170" rx="14" fill="#ffffff"/><rect x="58" y="62" width="124" height="40" rx="14" fill="#f5a3c0"/><rect x="58" y="88" width="124" height="14" fill="#f5a3c0"/><rect x="76" y="118" width="88" height="8" rx="4" fill="#e2e8f0"/><rect x="76" y="138" width="78" height="8" rx="4" fill="#e2e8f0"/><rect x="76" y="158" width="68" height="8" rx="4" fill="#e2e8f0"/></g><g transform="rotate(-4 168 160)"><rect x="106" y="62" width="124" height="170" rx="14" fill="#ffffff"/><rect x="106" y="62" width="124" height="40" rx="14" fill="#22b8cf"/><rect x="106" y="88" width="124" height="14" fill="#22b8cf"/><rect x="124" y="118" width="88" height="8" rx="4" fill="#e2e8f0"/><rect x="124" y="138" width="78" height="8" rx="4" fill="#e2e8f0"/><rect x="124" y="158" width="68" height="8" rx="4" fill="#e2e8f0"/></g><g transform="rotate(6 214 160)"><rect x="152" y="62" width="124" height="170" rx="14" fill="#ffffff"/><rect x="152" y="62" width="124" height="40" rx="14" fill="#e0457b"/><rect x="152" y="88" width="124" height="14" fill="#e0457b"/><rect x="170" y="118" width="88" height="8" rx="4" fill="#e2e8f0"/><rect x="170" y="138" width="78" height="8" rx="4" fill="#e2e8f0"/><rect x="170" y="158" width="68" height="8" rx="4" fill="#e2e8f0"/></g>
  <path d="M270 180 L340 206 L340 236 Q340 262 300 276 Q260 262 260 236 L260 206Z" fill="#b52c5d" transform="translate(0,-26)"/>
  <path d="M284 210 L296 222 L318 198" fill="none" stroke="#ffffff" stroke-width="7" stroke-linecap="round" stroke-linejoin="round"/></g>

  <rect x="1033" y="285" width="118" height="118" rx="30" fill="#1f2a44" opacity="0.10" filter="url(#blur)"/>
  <rect x="1029" y="271" width="118" height="118" rx="30" fill="#ffffff"/><g transform="translate(1052,294) scale(1.5)"><rect x="4" y="4" width="40" height="40" rx="11" fill="#e0457b"/><path d="M24 13 V35 M13 24 H35" stroke="#ffffff" stroke-width="6" stroke-linecap="round"/></g>
  <rect x="241" y="425" width="118" height="118" rx="30" fill="#1f2a44" opacity="0.10" filter="url(#blur)"/>
  <rect x="237" y="411" width="118" height="118" rx="30" fill="#ffffff"/><g transform="translate(260,434) scale(1.5)"><circle cx="24" cy="24" r="19" fill="#22b8cf"/><path d="M15 24 L21 30 L33 17" fill="none" stroke="#ffffff" stroke-width="5" stroke-linecap="round" stroke-linejoin="round"/></g>
<path d="M90 123.71075966954231 L94.48 135.23075966954232 L106 139.7107596695423 L94.48 144.1907596695423 L90 155.7107596695423 L85.52 144.1907596695423 L74 139.7107596695423 L85.52 135.23075966954232Z" fill="#22b8cf"/><path d="M1110 494.08457209542394 L1113.36 502.7245720954239 L1122 506.08457209542394 L1113.36 509.44457209542395 L1110 518.0845720954239 L1106.64 509.44457209542395 L1098 506.08457209542394 L1106.64 502.7245720954239Z" fill="#e0457b"/><path d="M500 73.06591643951833 L502.8 80.26591643951834 L510 83.06591643951833 L502.8 85.86591643951833 L500 93.06591643951833 L497.2 85.86591643951833 L490 83.06591643951833 L497.2 80.26591643951834Z" fill="#f5a3c0"/>
</svg>