<svg xmlns="http://www.w3.org/2000/svg" width="1200" height="675" viewBox="0 0 1200 675" role="img">
<defs>
  <linearGradient id="bg" x1="0" y1="0" x2="1" y2="1"><stop offset="0" stop-color="#eaf2ff"/><stop offset="1" stop-color="#f7faff"/></linearGradient>
  <linearGradient id="tile" x1="0" y1="0" x2="0" y2="1"><stop offset="0" stop-color="#ffffff"/><stop offset="1" stop-color="#f7faff"/></linearGradient>
  <filter id="blur" x="-30%" y="-30%" width="160%" height="160%"><feGaussianBlur stdDeviation="16"/></filter>
</defs>
<rect width="1200" height="675" fill="url(#bg)"/>
<circle cx="234" cy="175" r="200" fill="#d3e4ff" opacity="0.65"/>
<circle cx="1062" cy="592" r="230" fill="#d3e4ff" opacity="0.55"/>
<circle cx="70" cy="470" r="4" fill="#2563eb" opacity="0.16"/><circle cx="98" cy="470" r="4" fill="#2563eb" opacity="0.16"/><circle cx="126" cy="470" r="4" fill="#2563eb" opacity="0.16"/><circle cx="154" cy="470" r="4" fill="#2563eb" opacity="0.16"/><circle cx="182" cy="470" r="4" fill="#2563eb" opacity="0.16"/><circle cx="210" cy="470" r="4" fill="#2563eb" opacity="0.16"/><circle cx="238" cy="470" r="4" fill="#2563eb" opacity="0.16"/><circle cx="70" cy="498" r="4" fill="#2563eb" opacity="0.16"/><circle cx="98" cy="498" r="4" fill="#2563eb" opacity="0.16"/><circle cx="126" cy="498" r="4" fill="#2563eb" opacity="0.16"/><circle cx="154" cy="498" r="4" fill="#2563eb" opacity="0.16"/><circle cx="182" cy="498" r="4" fill="#2563eb" opacity="0.16"/><circle cx="210" cy="498" r="4" fill="#2563eb" opacity="0.16"/><circle cx="238" cy="498" r="4" fill="#2563eb" opacity="0.16"/><circle cx="70" cy="526" r="4" fill="#2563eb" opacity="0.16"/><circle cx="98" cy="526" r="4" fill="#2563eb" opacity="0.16"/><circle cx="126" cy="526" r="4" fill="#2563eb" opacity="0.16"/><circle cx="154" cy="526" r="4" fill="#2563eb" opacity="0.16"/><circle cx="182" cy="526" r="4" fill="#2563eb" opacity="0.16"/><circle cx="210" cy="526" r="4" fill="#2563eb" opacity="0.16"/><circle cx="238" cy="526" r="4" fill="#2563eb" opacity="0.16"/><circle cx="70" cy="554" r="4" fill="#2563eb" opacity="0.16"/><circle cx="98" cy="554" r="4" fill="#2563eb" opacity="0.16"/><circle cx="126" cy="554" r="4" fill="#2563eb" opacity="0.16"/><circle cx="154" cy="554" r="4" fill="#2563eb" opacity="0.16"/><circle cx="182" cy="554" r="4" fill="#2563eb" opacity="0.16"/><circle cx="210" cy="554" r="4" fill="#2563eb" opacity="0.16"/><circle cx="238" cy="554" r="4" fill="#2563eb" opacity="0.16"/><circle cx="70" cy="582" r="4" fill="#2563eb" opacity="0.16"/><circle cx="98" cy="582" r="4" fill="#2563eb" opacity="0.16"/><circle cx="126" cy="582" r="4" fill="#2563eb" opacity="0.16"/><circle cx="154" cy="582" r="4" fill="#2563eb" opacity="0.16"/><circle cx="182" cy="582" r="4" fill="#2563eb" opacity="0.16"/><circle cx="210" cy="582" r="4" fill="#2563eb" opacity="0.16"/><circle cx="238" cy="582" r="4" fill="#2563eb" opacity="0.16"/>
<circle cx="600" cy="338" r="270" fill="none" stroke="#93b8fb" stroke-width="2" stroke-dasharray="4 12" opacity="0.7"/>
<circle cx="600" cy="338" r="215" fill="#ffffff" opacity="0.5"/>
<rect x="428" y="184" width="360" height="360" rx="88" fill="#1f2a44" opacity="0.13" filter="url(#blur)"/>
<rect x="420" y="158" width="360" height="360" rx="88" fill="url(#tile)"/>
<rect x="420" y="158" width="360" height="360" rx="88" fill="none" stroke="#93b8fb" stroke-width="3" opacity="0.6"/>
<circle cx="600" cy="338" r="118" fill="#bdf2dd" opacity="0.75"/>
<g transform="translate(489.6,227.60000000000002) scale(4.6)"><rect x="10" y="5" width="4" height="38" rx="2" fill="#94a3b8"/><circle cx="12" cy="30" r="6.5" fill="#2563eb"/><circle cx="12" cy="30" r="2.6" fill="#ffffff"/><rect x="22" y="5" width="4" height="38" rx="2" fill="#94a3b8"/><circle cx="24" cy="14" r="6.5" fill="#2563eb"/><circle cx="24" cy="14" r="2.6" fill="#ffffff"/><rect x="34" y="5" width="4" height="38" rx="2" fill="#94a3b8"/><circle cx="36" cy="26" r="6.5" fill="#2563eb"/><circle cx="36" cy="26" r="2.6" fill="#ffffff"/></g>

  <rect x="802" y="146" width="128" height="128" rx="34" fill="#1f2a44" opacity="0.10" filter="url(#blur)"/>
  <rect x="798" y="132" width="128" height="128" rx="34" fill="#ffffff"/><g transform="translate(822,156) scale(1.67)"><path d="M24 42 C10 32 4 25 4 17 C4 10 9 6 15 6 C19 6 22 8 24 12 C26 8 29 6 33 6 C39 6 44 10 44 17 C44 25 38 32 24 42Z" fill="#10b981"/><path d="M9 22 H17 L20 15 L25 29 L29 20 L39 20" fill="none" stroke="#ffffff" stroke-width="3" stroke-linejoin="round" stroke-linecap="round"/></g>

  <rect x="278" y="430" width="128" height="128" rx="34" fill="#1f2a44" opacity="0.10" filter="url(#blur)"/>
  <rect x="274" y="416" width="128" height="128" rx="34" fill="#ffffff"/><g transform="translate(298,440) scale(1.67)"><path d="M6 24 L24 8 L42 24" fill="none" stroke="#2563eb" stroke-width="5" stroke-linecap="round" stroke-linejoin="round"/><path d="M12 22 L12 42 L36 42 L36 22" fill="#2563eb"/><rect x="20" y="30" width="8" height="12" fill="#ffffff"/></g>
<path d="M1090 92 L1095.04 104.96 L1108 110 L1095.04 115.04 L1090 128 L1084.96 115.04 L1072 110 L1084.96 104.96Z" fill="#10b981"/><path d="M150 408 L153.36 416.64 L162 420 L153.36 423.36 L150 432 L146.64 423.36 L138 420 L146.64 416.64Z" fill="#2563eb"/><path d="M880 549 L883.08 556.92 L891 560 L883.08 563.08 L880 571 L876.92 563.08 L869 560 L876.92 556.92Z" fill="#93b8fb"/><path d="M320 141 L322.52 147.48 L329 150 L322.52 152.52 L320 159 L317.48 152.52 L311 150 L317.48 147.48Z" fill="#10b981"/>
</svg>